<svg width="23" height="23" viewBox="0 0 23 23" fill="none" xmlns="http://www.w3.org/2000/svg">
<path d="M21.0665 0.453369H1.86477C0.944948 0.453369 0.201172 1.17954 0.201172 2.07735V21.3583C0.201172 22.2561 0.944948 22.9867 1.86477 22.9867H21.0665C21.9863 22.9867 22.7345 22.2561 22.7345 21.3627V2.07735C22.7345 1.17954 21.9863 0.453369 21.0665 0.453369ZM6.88635 19.6551H3.54156V8.89897H6.88635V19.6551ZM5.21396 7.43342C4.1401 7.43342 3.2731 6.56642 3.2731 5.49696C3.2731 4.42751 4.1401 3.5605 5.21396 3.5605C6.28341 3.5605 7.15042 4.42751 7.15042 5.49696C7.15042 6.56201 6.28341 7.43342 5.21396 7.43342ZM19.4029 19.6551H16.0625V14.4267C16.0625 13.1812 16.0405 11.5748 14.3241 11.5748C12.5857 11.5748 12.3216 12.9347 12.3216 14.3387V19.6551H8.98565V8.89897H12.1896V10.3689H12.2336C12.6781 9.52392 13.7696 8.6305 15.3936 8.6305C18.778 8.6305 19.4029 10.8574 19.4029 13.7533V19.6551Z" fill="#DFDFE0"/>
</svg>
