<svg width="117" height="39" viewBox="0 0 117 39" fill="none" xmlns="http://www.w3.org/2000/svg">
<path d="M20.8689 22.8511H15.0195V37.7554H20.8689V22.8511Z" fill="#09052B"/>
<path d="M31.6311 29.5867C31.6311 27.9043 31.0434 27.0631 29.8681 27.0631C28.7182 27.0631 28.1385 27.9027 28.1385 29.5867V37.7456H22.2938V22.8556H28.1385V24.6961C29.0287 23.2635 30.4099 22.5456 32.2821 22.5425C35.7477 22.5425 37.479 24.7055 37.4758 29.0317V37.7599H31.6311V29.5867Z" fill="#09052B"/>
<path d="M50.1662 35.916C49.3172 37.3548 47.8916 38.0727 45.8895 38.0695C44.9453 38.0897 44.008 37.9041 43.143 37.5256C42.2782 37.1471 41.5062 36.5848 40.8811 35.878C39.5219 34.3476 38.8054 32.3531 38.8806 30.309C38.8054 28.2652 39.5219 26.2707 40.8811 24.7401C41.506 24.0327 42.2778 23.4698 43.1426 23.0905C44.0076 22.7112 44.9449 22.5246 45.8895 22.5438C47.8758 22.5438 49.3013 23.2712 50.1662 24.7259V22.8569H56.0109V37.7612H50.1662V35.916ZM45.4999 32.6903C45.7442 32.9832 46.0501 33.2186 46.3958 33.3803C46.7415 33.542 47.1187 33.6258 47.5004 33.6258C47.8821 33.6258 48.2593 33.542 48.605 33.3803C48.9507 33.2186 49.2566 32.9832 49.5009 32.6903C49.9858 31.9942 50.2456 31.1665 50.2456 30.3185C50.2456 29.4706 49.9858 28.6431 49.5009 27.9468C49.2566 27.654 48.9507 27.4184 48.605 27.257C48.2593 27.0953 47.8821 27.0115 47.5004 27.0115C47.1187 27.0115 46.7415 27.0953 46.3958 27.257C46.0501 27.4184 45.7442 27.654 45.4999 27.9468C45.0124 28.6421 44.7511 29.47 44.7511 30.3185C44.7511 31.1672 45.0124 31.9952 45.4999 32.6903Z" fill="#09052B"/>
<path d="M66.7773 29.5867C66.7773 27.9043 66.1912 27.0631 65.0191 27.0631C63.847 27.0631 63.2704 27.9043 63.2894 29.5867V37.7456H57.4447V22.8556H63.2894V24.6961C64.1796 23.2635 65.5608 22.5456 67.433 22.5425C70.8955 22.5425 72.6267 24.7055 72.6267 29.0317V37.7599H66.7773V29.5867Z" fill="#09052B"/>
<path d="M76.5356 24.6346C78.2631 23.1084 80.5123 22.3034 82.8175 22.3862C85.431 22.3862 87.5408 23.1594 89.1469 24.7058L86.3386 28.1591C85.4916 27.3673 84.3773 26.922 83.2167 26.9116C82.7793 26.8987 82.3435 26.9734 81.9355 27.1315C81.5274 27.2895 81.1552 27.5276 80.8407 27.8318C80.2394 28.4625 79.9041 29.2997 79.9041 30.1704C79.9041 31.041 80.2394 31.8785 80.8407 32.509C81.1552 32.8132 81.5274 33.0513 81.9355 33.2094C82.3435 33.3674 82.7793 33.4423 83.2167 33.4292C84.3773 33.4189 85.4916 32.9736 86.3386 32.1817L89.1469 35.6113C87.5408 37.1577 85.431 37.9325 82.8175 37.9356C80.5117 38.0167 78.2627 37.21 76.5356 35.6824C75.7541 34.9916 75.1283 34.1431 74.6998 33.1928C74.2712 32.2427 74.0496 31.2126 74.0496 30.1704C74.0496 29.1284 74.2712 28.0982 74.6998 27.1479C75.1283 26.1978 75.7541 25.3491 76.5356 24.6584V24.6346Z" fill="#09052B"/>
<path d="M91.4706 35.8783C90.7012 35.1835 90.091 34.3319 89.6809 33.3806C89.2709 32.4295 89.0709 31.4013 89.0947 30.3662C89.0796 29.3424 89.2709 28.3261 89.657 27.3776C90.0431 26.4291 90.6162 25.5677 91.3423 24.8447C92.8375 23.3173 94.8729 22.552 97.4483 22.5488C99.609 22.4658 101.721 23.1993 103.364 24.6028C104.904 25.9753 105.675 27.8221 105.678 30.1433C105.692 30.592 105.644 31.0404 105.536 31.4762H94.5592C94.5592 31.9506 94.9109 32.4629 95.6094 32.961C96.4346 33.499 97.4093 33.763 98.394 33.7152C99.8619 33.7223 101.287 33.2193 102.423 32.2921L104.833 35.5225C103.132 37.2397 100.814 38.0983 97.8808 38.0983C95.1912 38.0793 93.0545 37.3393 91.4706 35.8783ZM95.4573 27.2165C95.193 27.3853 94.9734 27.6154 94.817 27.8871C94.6608 28.1587 94.5723 28.4641 94.5592 28.7771H100.409C100.394 28.4617 100.302 28.1547 100.141 27.8828C99.9809 27.6108 99.7561 27.3821 99.4869 27.2165C98.881 26.8441 98.1835 26.6471 97.4721 26.6471C96.7607 26.6471 96.0632 26.8441 95.4573 27.2165Z" fill="#09052B"/>
<path d="M5.88749 15.6558H0V21.5378V34.9147H5.88749V21.5378H14.4027V15.6558H5.88749Z" fill="#09052B"/>
<path d="M12.0112 22.9746H9.22191H7.29742V24.9005V27.6802" fill="#585E8D"/>
<path d="M42.8197 0.901367H45.4522L52.9838 17.2809L60.544 0.901367H63.2002V20.3168H60.8243V5.57853H60.6865L53.8867 20.3168H52.1095L45.3144 5.57853H45.1766V20.3168H42.8007L42.8197 0.901367Z" fill="#09052B"/>
<path d="M64.6226 13.2129C64.6226 8.46932 68.3243 5.82715 72.0212 5.82715C75.7181 5.82715 79.415 8.45509 79.415 13.2129C79.415 17.9707 75.7181 20.5797 72.0212 20.5797C68.3243 20.5797 64.6226 17.9707 64.6226 13.2129ZM77.1151 13.2129C77.1151 9.8497 74.6489 7.93329 72.0212 7.93329C69.3934 7.93329 66.9225 9.83073 66.9225 13.2129C66.9225 16.5951 69.3744 18.4925 72.0212 18.4925C74.6679 18.4925 77.1151 16.5761 77.1151 13.2129Z" fill="#09052B"/>
<path d="M93.4963 11.9417V20.3094H91.1964V12.2453C91.1964 9.39914 89.4952 7.89543 87.2239 7.89543C84.9525 7.89543 83.1563 9.39914 83.1563 12.269V20.3331H80.8564V6.10235H83.1563V8.42671C83.8976 7.06056 85.4562 5.82723 87.9081 5.82723C90.9208 5.813 93.4963 7.67723 93.4963 11.9417Z" fill="#09052B"/>
<path d="M98.7583 7.9872V17C98.7583 17.8728 99.1954 18.4231 100.265 18.4231C100.705 18.4189 101.141 18.3353 101.552 18.1764V20.0122C100.982 20.3604 100.319 20.5261 99.6516 20.4865C97.7509 20.4865 96.4774 19.5615 96.4774 17.4269V7.9872H94.5767V6.08977H96.4774V2.46094H98.7773V6.09926H101.6V7.99669L98.7583 7.9872Z" fill="#09052B"/>
<path d="M117 6.09766L110.946 20.3286L108.675 25.5133H106.399L108.775 20.1813L102.759 6.09766H105.135L109.887 17.4822L114.638 6.09766H117Z" fill="#09052B"/>
</svg>
