<svg width="33" height="33" viewBox="0 0 33 33" fill="none" xmlns="http://www.w3.org/2000/svg">
<path d="M18.474 4.20659L28.5114 10.7309C28.8661 10.9614 29.0434 11.0767 29.1719 11.2304C29.2856 11.3665 29.3711 11.524 29.4232 11.6935C29.4821 11.885 29.4821 12.0965 29.4821 12.5196V22.2952C29.4821 24.5354 29.4821 25.6555 29.0461 26.5111C28.6626 27.2638 28.0507 27.8757 27.2981 28.2592C26.4424 28.6952 25.3223 28.6952 23.0821 28.6952H9.21543C6.97522 28.6952 5.85511 28.6952 4.99947 28.2592C4.24682 27.8757 3.6349 27.2638 3.2514 26.5111C2.81543 25.6555 2.81543 24.5354 2.81543 22.2952V12.5196C2.81543 12.0965 2.81543 11.885 2.87432 11.6935C2.92646 11.524 3.01189 11.3665 3.12563 11.2304C3.25411 11.0767 3.43145 10.9614 3.78612 10.7309L13.8235 4.20659M18.474 4.20659C17.6324 3.65951 17.2116 3.38597 16.7581 3.27954C16.3573 3.18547 15.9402 3.18547 15.5394 3.27954C15.086 3.38597 14.6651 3.65951 13.8235 4.20659M18.474 4.20659L26.7303 9.57314C27.6474 10.1693 28.106 10.4673 28.2648 10.8453C28.4036 11.1757 28.4036 11.548 28.2648 11.8783C28.106 12.2563 27.6474 12.5544 26.7303 13.1505L18.474 18.5171C17.6324 19.0641 17.2116 19.3377 16.7581 19.4441C16.3573 19.5382 15.9402 19.5382 15.5394 19.4441C15.086 19.3377 14.6651 19.0641 13.8235 18.5171L5.56724 13.1505C4.65011 12.5544 4.19155 12.2563 4.03273 11.8783C3.89393 11.548 3.89393 11.1757 4.03273 10.8453C4.19155 10.4673 4.65011 10.1693 5.56724 9.57314L13.8235 4.20659M28.8154 26.0285L19.9583 18.0285M12.3392 18.0285L3.4821 26.0285" stroke="#585E8D" stroke-width="2.8" stroke-linecap="round" stroke-linejoin="round"/>
</svg>
