<svg width="304" height="56" viewBox="0 0 304 56" fill="none" xmlns="http://www.w3.org/2000/svg">
<g clip-path="url(#clip0_412_245)">
<path d="M262.601 45.8856H251.291V9.46899H262.601V45.8856Z" fill="#FFFDFF"/>
<path d="M248.51 9.77551C250.679 10.3562 252.873 11.4854 255.083 13.1631C257.301 14.8408 258.98 16.9621 260.138 19.5269C261.296 22.0918 261.867 24.6971 261.867 27.3587C261.867 30.0204 261.362 32.4966 260.35 34.8034C259.339 37.1102 257.92 39.0943 256.11 40.7478C254.3 42.4013 252.212 43.6756 249.856 44.5548C247.499 45.442 245.028 45.8856 242.435 45.8856C240.502 45.8856 238.439 45.5953 236.254 45.0145C234.06 44.4338 231.85 43.3046 229.608 41.627C227.374 39.9493 225.669 37.8199 224.52 35.2309C223.362 32.6418 222.791 30.0204 222.791 27.3668C222.791 24.7132 223.296 22.237 224.308 19.9544C225.319 17.6718 226.738 15.7038 228.548 14.0423C230.358 12.3888 232.47 11.1144 234.876 10.2353C237.281 9.34803 239.801 8.90442 242.435 8.90442C244.319 8.90442 246.349 9.19478 248.51 9.77551ZM245.966 35.6099C247.287 35.0534 248.453 34.0291 249.464 32.5369C250.475 31.0448 250.981 29.3187 250.981 27.3668C250.981 24.7535 250.125 22.5919 248.404 20.8658C246.683 19.1398 244.694 18.2768 242.435 18.2768C241.024 18.2768 239.605 18.6478 238.195 19.3979C236.784 20.1399 235.675 21.253 234.876 22.721C234.077 24.1889 233.677 25.7375 233.677 27.3668C233.677 29.3268 234.183 31.0528 235.194 32.5369C236.205 34.0291 237.395 35.0534 238.765 35.6099C240.135 36.1665 241.359 36.4488 242.443 36.4488C243.528 36.4488 244.661 36.1665 245.974 35.6099H245.966Z" fill="#FFFDFF"/>
<path d="M283.998 55.4033H272.06L277.646 42.6433L263.294 9.47717H275.158L283.37 29.472L292.136 9.47717H304.001L283.99 55.4033H283.998Z" fill="#FFFDFF"/>
<path d="M222.35 10.8403C221.518 8.79156 220.319 7.02518 218.737 5.53302C217.155 4.04087 215.247 2.89554 213.005 2.1051C210.762 1.3066 208.308 0.911377 205.625 0.911377H196.084L182.499 32.0611V55.5081H194.551V34.505H205.111C210.713 34.505 215.19 32.9645 218.55 29.8834C221.909 26.8023 223.589 22.7049 223.589 17.5993C223.589 15.1393 223.173 12.8889 222.35 10.8403ZM209.71 22.6484C208.348 23.8986 206.522 24.5277 204.23 24.5277H194.543V11.0903H204.23C206.522 11.0903 208.348 11.7194 209.71 12.9696C211.072 14.2198 211.757 15.8087 211.757 17.7364C211.757 19.7609 211.072 21.3983 209.71 22.6484Z" fill="#FFFDFF"/>
<path d="M83.3472 12.2034C81.2352 10.5338 79.1476 9.40458 77.0845 8.83191C75.0214 8.25118 73.0888 7.96082 71.2948 7.96082C68.7832 7.96082 66.3777 8.40443 64.0944 9.28359C61.803 10.1628 59.797 11.4291 58.0682 13.0745C56.3395 14.7199 54.994 16.6798 54.0317 18.9544C53.0695 21.2289 52.5884 23.6889 52.5884 26.3345C52.5884 28.98 53.1347 31.5852 54.2356 34.1663C55.3365 36.7392 56.951 38.8605 59.0794 40.5382C61.2077 42.2078 63.3197 43.337 65.4073 43.9096C67.4948 44.4904 69.4601 44.7807 71.2948 44.7807C73.7656 44.7807 76.1223 44.3371 78.3648 43.458C80.6073 42.5788 82.597 41.3125 84.3257 39.6671C86.0545 38.0217 87.4 36.0456 88.3622 33.7549C89.3244 31.4562 89.8055 28.9881 89.8055 26.3425C89.8055 23.697 89.2592 21.0998 88.1583 18.5511C87.0575 16.0023 85.451 13.8891 83.3472 12.2195V12.2034ZM77.9978 30.9723C77.0356 32.3112 75.9184 33.2306 74.6626 33.7307C73.4068 34.2308 72.2815 34.4808 71.2948 34.4808C70.3081 34.4808 69.0931 34.2308 67.7965 33.7307C66.4918 33.2306 65.3583 32.3112 64.3961 30.9723C63.4339 29.6333 62.9528 28.0847 62.9528 26.3264C62.9528 24.8665 63.336 23.4712 64.0944 22.1564C64.8609 20.8417 65.9128 19.8497 67.2583 19.1802C68.6038 18.5107 69.9493 18.1801 71.2948 18.1801C73.4476 18.1801 75.3476 18.9544 76.9785 20.503C78.6176 22.0516 79.433 23.9954 79.433 26.3345C79.433 28.0928 78.9519 29.6414 77.9897 30.9803L77.9978 30.9723Z" fill="#FFFDFF"/>
<path d="M121.983 14.1795C120.817 12.9616 119.423 12.0179 117.808 11.3484C116.194 10.679 114.424 10.3483 112.491 10.3483C110.428 10.3483 108.496 10.7112 106.702 11.4452C104.908 12.1792 103.383 13.2116 102.127 14.5424V11.3484H91.355V44.7727H102.127V29.2623C102.127 26.157 102.747 23.826 103.978 22.2694C105.209 20.7127 106.93 19.9384 109.124 19.9384C110.379 19.9384 111.48 20.2933 112.418 21.0031C113.364 21.7128 114.008 22.5759 114.367 23.6002C114.726 24.6246 114.905 25.6005 114.905 26.5281V44.7727H125.604V24.2697C125.604 22.229 125.286 20.3417 124.658 18.6075C124.03 16.8734 123.133 15.3974 121.967 14.1795H121.983Z" fill="#FFFDFF"/>
<path d="M177.874 0.90332L165.039 30.1979L157.023 10.687H145.451L159.453 43.0466L153.997 55.5H165.642L189.453 0.90332H177.874Z" fill="#FFFDFF"/>
<path d="M142.044 30.3915V19.2931H149.187L145.493 10.695H142.036V0.5H131.264V10.695H125.14V19.2931H131.264V31.4561C131.264 35.7632 132.438 39.054 134.795 41.3447C137.151 43.6273 140.462 44.7726 144.727 44.7726C146.676 44.7726 153.33 44.4339 155.287 43.7725L151.927 35.5455C151.454 35.739 142.036 37.8764 142.036 30.3995L142.044 30.3915Z" fill="#FFFDFF"/>
<path d="M50.721 44.7806H40.2262V21.6079L27.8884 44.7806H22.8979L10.4949 21.4788V44.7806H0V1.29846H10.6335L25.3931 28.8831L40.1609 1.29846H50.721V44.7806Z" fill="#FFFDFF"/>
</g>
<defs>
<clipPath id="clip0_412_245">
<rect width="304" height="55" fill="white" transform="translate(0 0.5)"/>
</clipPath>
</defs>
</svg>
