<svg width="242" height="76" viewBox="0 0 242 76" fill="none" xmlns="http://www.w3.org/2000/svg">
<path d="M27.1761 49.4927C27.1761 57.072 21.2334 63.2293 13.8794 63.2293C6.52554 63.2293 0.598511 57.0877 0.598511 49.4927C0.598511 41.8976 6.54122 35.756 13.8951 35.756C21.249 35.756 27.1917 41.9133 27.1917 49.4927" fill="#5A5F71"/>
<path fill-rule="evenodd" clip-rule="evenodd" d="M42.7304 12.299C41.3976 7.78261 39.1711 4.26639 31.6761 4.157C24.6044 4.04761 17.5798 10.5487 18.7401 19.8471C19.9631 29.6613 27.3327 27.9579 33.3695 32.0523C41.037 37.2563 35.5961 45.3358 37.3052 54.1341C40.1119 68.5115 63.8357 65.0891 62.8949 49.3989C62.8949 49.6802 62.9106 49.1333 62.8949 49.3989C62.8949 44.8513 60.0411 40.9913 56.0271 39.4598C55.933 39.4129 49.3474 36.2405 48.485 35.7248C42.9343 32.3648 43.3263 24.551 43.2165 17.7999C43.2165 17.7999 43.436 14.7681 42.7148 12.3146" fill="#5A5F71"/>
<path fill-rule="evenodd" clip-rule="evenodd" d="M79.2022 12.299C77.8694 7.78261 75.6429 4.26639 68.1479 4.157C61.0762 4.04761 54.0516 10.5487 55.2119 19.8471C56.4349 29.6613 63.8045 27.9579 69.8413 32.0523C77.5088 37.2563 72.0678 45.3358 73.777 54.1341C76.5837 68.5115 100.307 65.0891 99.3667 49.3989C99.3667 49.6802 99.3824 49.1333 99.3667 49.3989C99.3667 44.8513 96.5129 40.9913 92.4989 39.4598C92.4048 39.4129 85.8192 36.2405 84.9568 35.7248C79.4061 32.3648 79.7981 24.551 79.6883 17.7999C79.6883 17.7999 79.9078 14.7681 79.1866 12.3146" fill="#5A5F71"/>
<path d="M115.219 69.0895H113.008V75.2156C112.789 75.2468 112.585 75.2781 112.366 75.2781C112.162 75.2781 111.942 75.2468 111.723 75.2156V69.0895H109.512C109.465 68.902 109.449 68.6989 109.449 68.5113C109.449 68.3238 109.465 68.1206 109.512 67.9331H115.219C115.266 68.1206 115.282 68.3238 115.282 68.5113C115.282 68.6989 115.266 68.8864 115.219 69.0895Z" fill="#5A5F71"/>
<path d="M123.749 67.9486V75.2155C123.545 75.2623 123.357 75.278 123.138 75.278C122.918 75.278 122.699 75.2623 122.448 75.2155V72.1056H118.998V75.2155C118.779 75.2623 118.559 75.278 118.355 75.278C118.151 75.278 117.947 75.2623 117.712 75.2155V67.9486C117.916 67.8861 118.12 67.8861 118.324 67.8861C118.559 67.8861 118.779 67.8861 118.998 67.9486V70.9335H122.448V67.9486C122.683 67.9017 122.887 67.8861 123.091 67.8861C123.294 67.8861 123.53 67.9017 123.733 67.9486H123.749Z" fill="#5A5F71"/>
<path d="M131.762 74.6061C131.762 74.8093 131.746 75.0124 131.683 75.1999H126.901V67.9175H131.574C131.621 68.105 131.636 68.3082 131.636 68.5113C131.636 68.7145 131.621 68.902 131.574 69.0896H128.187V70.8867H131.197C131.244 71.0743 131.26 71.2774 131.26 71.4649C131.26 71.6525 131.244 71.84 131.197 72.0432H128.187V74.0435H131.683C131.746 74.231 131.762 74.4186 131.762 74.6061Z" fill="#5A5F71"/>
<path d="M144.133 75.1216C143.882 75.2153 143.616 75.2466 143.334 75.2466C143.161 75.2466 142.957 75.2466 142.8 75.1997L142.158 73.4494H139.288L138.661 75.1997C138.473 75.231 138.269 75.2466 138.081 75.2466C137.814 75.2466 137.563 75.2153 137.359 75.1216L140.072 67.9172C140.292 67.8547 140.527 67.8547 140.746 67.8547C140.982 67.8547 141.185 67.8547 141.389 67.9172L144.133 75.1216ZM141.734 72.3711L140.887 70.1051L140.684 69.4331L140.48 70.1051L139.664 72.3711H141.734Z" fill="#5A5F71"/>
<path d="M152.067 75.1373C151.785 75.2155 151.424 75.2467 151.048 75.2467C150.922 75.2467 150.75 75.2467 150.64 75.2311L149.009 72.5275H148.837C148.492 72.5275 148.131 72.5275 147.771 72.5119V75.2155C147.551 75.2624 147.347 75.278 147.128 75.278C146.908 75.278 146.705 75.2624 146.485 75.2155V68.058C147.159 67.9174 148.037 67.8236 148.821 67.8236C150.844 67.8236 151.722 68.7144 151.722 70.074C151.722 71.1679 151.142 71.8868 150.295 72.2618L152.083 75.153L152.067 75.1373ZM148.868 71.4336C149.966 71.4336 150.389 70.871 150.389 70.1365C150.389 69.402 149.903 68.9175 148.853 68.9175C148.476 68.9175 148.116 68.9332 147.755 68.98V71.418C148.131 71.4336 148.508 71.4336 148.853 71.4336H148.868Z" fill="#5A5F71"/>
<path d="M159.468 69.0895H157.257V75.2156C157.038 75.2468 156.834 75.2781 156.614 75.2781C156.411 75.2781 156.191 75.2468 155.971 75.2156V69.0895H153.761C153.714 68.902 153.698 68.6989 153.698 68.5113C153.698 68.3238 153.714 68.1206 153.761 67.9331H159.468C159.515 68.1206 159.531 68.3238 159.531 68.5113C159.531 68.6989 159.515 68.8864 159.468 69.0895Z" fill="#5A5F71"/>
<path d="M165.113 71.5586C165.113 69.3551 166.665 67.7142 168.845 67.7142C171.024 67.7142 172.577 69.2926 172.577 71.5586C172.577 73.8246 171.024 75.3874 168.845 75.3874C166.665 75.3874 165.113 73.7934 165.113 71.5586ZM171.181 71.5586C171.181 69.9646 170.256 68.9176 168.845 68.9176C167.434 68.9176 166.509 69.9646 166.509 71.5586C166.509 73.1526 167.434 74.1841 168.845 74.1841C170.256 74.1841 171.181 73.1058 171.181 71.5586Z" fill="#5A5F71"/>
<path d="M176.575 69.1052V71.2149H179.538C179.585 71.4024 179.601 71.6056 179.601 71.7931C179.601 71.9807 179.601 72.1838 179.538 72.3714H176.575V75.1999C176.355 75.2468 176.152 75.2625 175.932 75.2625C175.728 75.2625 175.509 75.2468 175.289 75.1999V67.9175H179.915C179.962 68.105 179.977 68.3082 179.977 68.5113C179.977 68.7145 179.977 68.902 179.915 69.1052H176.575Z" fill="#5A5F71"/>
<path d="M190.907 69.0895H188.696V75.2156C188.476 75.2468 188.272 75.2781 188.053 75.2781C187.849 75.2781 187.63 75.2468 187.41 75.2156V69.0895H185.199C185.152 68.902 185.136 68.6989 185.136 68.5113C185.136 68.3238 185.152 68.1206 185.199 67.9331H190.907C190.954 68.1206 190.969 68.3238 190.969 68.5113C190.969 68.6989 190.954 68.8864 190.907 69.0895Z" fill="#5A5F71"/>
<path d="M198.26 74.6061C198.26 74.8093 198.245 75.0124 198.182 75.1999H193.4V67.9175H198.072C198.119 68.105 198.135 68.3082 198.135 68.5113C198.135 68.7145 198.119 68.902 198.072 69.0896H194.685V70.8867H197.696C197.743 71.0743 197.759 71.2774 197.759 71.4649C197.759 71.6525 197.743 71.84 197.696 72.0432H194.685V74.0435H198.182C198.245 74.231 198.26 74.4186 198.26 74.6061Z" fill="#5A5F71"/>
<path d="M205.505 74.6217C205.505 74.8093 205.489 75.0124 205.442 75.2156H200.973V67.9331C201.193 67.8862 201.396 67.8706 201.616 67.8706C201.836 67.8706 202.055 67.8862 202.259 67.9331V74.0591H205.442C205.489 74.2467 205.505 74.4342 205.505 74.6217Z" fill="#5A5F71"/>
<path d="M212.796 74.6061C212.796 74.8093 212.78 75.0124 212.717 75.1999H207.935V67.9175H212.608C212.655 68.105 212.67 68.3082 212.67 68.5113C212.67 68.7145 212.655 68.902 212.608 69.0896H209.221V70.8867H212.231C212.278 71.0743 212.294 71.2774 212.294 71.4649C212.294 71.6525 212.278 71.84 212.231 72.0432H209.221V74.0435H212.717C212.78 74.231 212.796 74.4186 212.796 74.6061Z" fill="#5A5F71"/>
<path d="M214.928 71.5743C214.928 69.3239 216.527 67.7142 218.676 67.7142C219.695 67.7142 220.416 68.0112 220.918 68.4019C220.855 68.7925 220.573 69.2145 220.212 69.4176C219.742 69.1051 219.287 68.9488 218.707 68.9488C217.327 68.9488 216.324 69.949 216.324 71.5899C216.324 73.2308 217.343 74.2153 218.66 74.2153C219.507 74.2153 219.961 73.9965 220.338 73.6684C220.745 73.9028 220.934 74.1841 221.028 74.6842C220.589 75.0436 219.883 75.4343 218.629 75.4343C216.402 75.4343 214.944 73.8559 214.944 71.6055L214.928 71.5743Z" fill="#5A5F71"/>
<path d="M222.847 71.5586C222.847 69.3551 224.399 67.7142 226.578 67.7142C228.758 67.7142 230.31 69.2926 230.31 71.5586C230.31 73.8246 228.758 75.3874 226.578 75.3874C224.399 75.3874 222.847 73.7934 222.847 71.5586ZM228.915 71.5586C228.915 69.9646 227.99 68.9176 226.578 68.9176C225.167 68.9176 224.242 69.9646 224.242 71.5586C224.242 73.1526 225.167 74.1841 226.578 74.1841C227.99 74.1841 228.915 73.1058 228.915 71.5586Z" fill="#5A5F71"/>
<path d="M240.251 67.9644V75.2C240.016 75.2468 239.844 75.2625 239.656 75.2625C239.452 75.2625 239.264 75.2468 239.028 75.2V71.2149L239.091 70.1679L238.903 70.7148L237.241 74.5436C237.021 74.5749 236.849 74.5905 236.676 74.5905C236.52 74.5905 236.347 74.5905 236.112 74.5436L234.387 70.6836L234.183 70.1679L234.23 71.2149V75.2C234.026 75.2468 233.807 75.2625 233.634 75.2625C233.431 75.2625 233.258 75.2468 233.039 75.2V67.9644C233.227 67.9175 233.431 67.8706 233.728 67.8706C233.932 67.8706 234.136 67.8706 234.356 67.9331L236.614 72.8402L236.755 73.1996L236.864 72.8402L238.981 67.9331C239.185 67.9019 239.326 67.8862 239.593 67.8862C239.812 67.8862 240.032 67.9019 240.283 67.9644H240.251Z" fill="#5A5F71"/>
<path d="M144.18 13.8928V27.2857C143.051 27.4576 141.938 27.5513 140.809 27.5513C139.68 27.5513 138.567 27.4576 137.438 27.2857V15.3774C137.438 12.7364 136.183 11.3455 133.659 11.3455C131.95 11.3455 130.868 11.9706 130.068 12.5488C130.115 13.002 130.162 13.4396 130.162 13.8928V27.2857C129.033 27.4576 127.92 27.5513 126.791 27.5513C125.662 27.5513 124.549 27.4576 123.467 27.2857V15.3774C123.467 12.7364 122.165 11.3455 119.641 11.3455C118.151 11.3455 116.991 11.7518 116.176 12.2363V27.2857C115.047 27.4576 113.933 27.5513 112.804 27.5513C111.675 27.5513 110.609 27.4576 109.48 27.2857V8.82945C111.001 7.53236 115 5.29761 120.268 5.29761C123.279 5.29761 125.615 6.06336 127.23 7.31357C128.939 6.23526 131.401 5.29761 134.286 5.29761C140.981 5.29761 144.164 8.92321 144.164 13.8928H144.18Z" fill="#5A5F71"/>
<path d="M147.646 16.6589C147.646 9.81399 152.585 5.28198 159.374 5.28198C166.164 5.28198 171.009 9.72022 171.009 16.6589C171.009 23.5975 166.069 27.9889 159.28 27.9889C152.491 27.9889 147.646 23.6913 147.646 16.6589ZM164.266 16.6589C164.266 13.1583 162.463 10.8767 159.327 10.8767C156.191 10.8767 154.341 13.1583 154.341 16.6589C154.341 20.1595 156.175 22.4411 159.327 22.4411C162.479 22.4411 164.266 20.1126 164.266 16.6589Z" fill="#5A5F71"/>
<path d="M195.626 14.3773V27.27C194.497 27.4419 193.384 27.5357 192.255 27.5357C191.126 27.5357 190.013 27.4419 188.884 27.27V15.4556C188.884 12.4082 187.222 11.3299 184.838 11.3299C183.27 11.3299 182 11.7831 181.247 12.2206V27.27C180.119 27.4419 179.005 27.5357 177.876 27.5357C176.747 27.5357 175.681 27.4419 174.552 27.27V8.82945C176.214 7.34482 180.04 5.29761 185.34 5.29761C192.443 5.29761 195.626 9.142 195.626 14.3929V14.3773Z" fill="#5A5F71"/>
<path d="M217.5 25.5667C215.979 26.77 213.815 27.9421 210.585 27.9421C205.693 27.9421 202.008 25.8792 202.008 20.6909V11.83H198.37C198.229 10.9861 198.151 10.0328 198.151 9.0483C198.151 8.15753 198.245 7.25113 198.37 6.36035H202.008V0.765669C203.184 0.593766 204.297 0.5 205.426 0.5C206.555 0.5 207.621 0.593766 208.656 0.765669V6.36035H216.12C216.292 7.20425 216.433 8.11065 216.433 9.00142C216.433 9.98596 216.292 10.8767 216.12 11.8144H208.656V19.0187C208.656 21.441 209.785 22.238 211.761 22.238C213.015 22.238 214.003 21.6129 214.724 20.9878C216.026 21.7535 217.28 23.7695 217.515 25.5511L217.5 25.5667Z" fill="#5A5F71"/>
<path d="M241.788 6.45407C239.953 20.0188 234.732 30.0049 225.12 36.8498C223.05 36.1309 221.702 34.1618 221.122 32.2396C223.505 30.3643 225.622 28.4265 226.955 26.5981C222.596 19.8782 220.62 14.0647 218.958 6.40719C219.899 6.1884 221.968 5.9071 223.85 5.9071C224.665 5.9071 225.606 5.95399 226.359 6.04775C227.174 10.9705 228.648 16.2526 230.498 20.5033C230.718 21.0034 230.859 21.3941 230.953 21.7066C231.047 21.2534 231.172 20.8158 231.314 20.5033C233.148 16.2057 234.183 10.9705 234.81 6.04775C235.657 5.95399 236.613 5.9071 237.46 5.9071C239.028 5.9071 240.565 6.12589 241.772 6.43844L241.788 6.45407Z" fill="#5A5F71"/>
<path d="M195.94 50.8522C195.94 57.9315 191.141 62.1822 183.552 62.1822C180.071 62.1822 176.716 61.4321 174.301 60.1663V32.6148C175.399 32.396 176.512 32.3491 177.563 32.3491C178.613 32.3491 179.773 32.396 180.871 32.6148V40.5692C181.89 40.2254 183.035 40.0379 184.446 40.0379C191.016 40.0379 195.955 43.7729 195.955 50.8522H195.94ZM189.338 51.1179C189.338 47.9611 187.441 45.6638 184.007 45.6638C182.909 45.6638 181.843 45.8358 180.871 46.1952V56.1656C182.016 56.5094 183.035 56.6501 184.007 56.6501C187.394 56.6501 189.338 54.4934 189.338 51.1179Z" fill="#5A5F71"/>
<path d="M198.433 33.9899C198.433 31.8333 200.189 30.083 202.4 30.083C204.611 30.083 206.367 31.8333 206.367 33.9899C206.367 36.1465 204.564 37.9437 202.4 37.9437C200.236 37.9437 198.433 36.1465 198.433 33.9899ZM199.091 61.4945V40.6316C200.142 40.4597 201.255 40.366 202.353 40.366C203.45 40.366 204.517 40.4597 205.661 40.6316V61.4945C204.611 61.6664 203.497 61.7602 202.353 61.7602C201.302 61.7602 200.189 61.6664 199.091 61.4945Z" fill="#5A5F71"/>
<path d="M209.879 61.4946V32.7242C210.898 32.5523 211.996 32.4585 213.094 32.4585C214.191 32.4585 215.336 32.5523 216.48 32.7242V61.4946C215.461 61.6665 214.317 61.7603 213.219 61.7603C212.121 61.7603 211.008 61.6665 209.864 61.4946H209.879Z" fill="#5A5F71"/>
<path d="M240.769 52.5555H226.625C227.033 55.5404 228.679 56.8843 231.862 56.8843C234.544 56.8843 236.472 55.806 238.134 54.7434C239.514 55.8217 240.377 57.6032 240.549 59.2441C238.667 60.6662 235.751 62.229 231.141 62.229C224.555 62.229 219.82 58.1658 219.82 51.0709C219.82 44.3823 224.571 39.694 230.921 39.694C236.927 39.694 240.988 43.4915 240.988 49.4143C240.988 50.4926 240.941 51.4616 240.769 52.5399V52.5555ZM234.685 48.8049C234.685 46.7576 233.697 44.8823 230.969 44.7417C228.413 44.7417 226.939 46.3982 226.625 48.8049H234.685Z" fill="#5A5F71"/>
<path d="M144.18 48.3049V61.6978C143.051 61.8697 141.938 61.9634 140.809 61.9634C139.68 61.9634 138.567 61.8697 137.438 61.6978V49.7895C137.438 47.1485 136.183 45.7576 133.659 45.7576C131.95 45.7576 130.868 46.3827 130.068 46.9609C130.115 47.4141 130.162 47.8517 130.162 48.3049V61.6978C129.033 61.8697 127.92 61.9634 126.791 61.9634C125.662 61.9634 124.549 61.8697 123.467 61.6978V49.7895C123.467 47.1485 122.165 45.7576 119.641 45.7576C118.151 45.7576 116.991 46.1639 116.176 46.6484V61.6978C115.047 61.8697 113.933 61.9634 112.804 61.9634C111.675 61.9634 110.609 61.8697 109.48 61.6978V43.2572C111.001 41.9601 115 39.7253 120.268 39.7253C123.279 39.7253 125.615 40.4911 127.23 41.7413C128.939 40.663 131.401 39.7253 134.286 39.7253C140.981 39.7253 144.164 43.3509 144.164 48.3205L144.18 48.3049Z" fill="#5A5F71"/>
<path d="M147.646 51.0865C147.646 44.2416 152.585 39.7096 159.374 39.7096C166.164 39.7096 171.009 44.1478 171.009 51.0865C171.009 58.0252 166.069 62.4165 159.28 62.4165C152.491 62.4165 147.646 58.1189 147.646 51.0865ZM164.266 51.0865C164.266 47.5859 162.463 45.3043 159.327 45.3043C156.191 45.3043 154.341 47.5859 154.341 51.0865C154.341 54.5871 156.175 56.8687 159.327 56.8687C162.479 56.8687 164.266 54.5402 164.266 51.0865Z" fill="#5A5F71"/>
</svg>
