<svg xmlns="http://www.w3.org/2000/svg" width="285" height="59" fill="none" viewBox="0 0 285 59"><g clip-path="url(#clip0_412_196)"><path fill="#09052B" d="M166.325 8.23694C176.286 8.23694 185.054 15.505 185.054 26.1996C185.054 36.8943 176.286 44.2344 166.325 44.2344C156.364 44.2344 147.596 37.0386 147.596 26.1996C147.596 15.3607 156.426 8.23694 166.325 8.23694ZM166.325 35.6228C171.239 35.6228 175.422 31.583 175.422 26.1996C175.422 20.8162 171.239 16.8486 166.325 16.8486C161.411 16.8486 157.228 20.8162 157.228 26.1996C157.228 31.583 161.482 35.6228 166.325 35.6228Z"/><path fill="#09052B" d="M187.653 8.23694H197.551V13.6835C200.409 9.64365 203.996 8.23694 208.118 8.23694C217.687 8.23694 220.277 15.9739 220.277 24.7208V43.495H210.379V24.9192C210.379 20.1399 208.652 16.5059 204.067 16.5059C199.483 16.5059 197.56 20.203 197.56 24.9823V43.486H187.662V8.23694H187.653Z"/><path fill="#09052B" d="M234.653 8.31811H244.089V16.1903H234.653V33.0078C234.653 34.4866 235.249 36.0376 237.181 36.0376C239.113 36.0376 239.771 34.4235 239.771 32.8094C239.771 31.7995 239.504 30.3837 239.308 29.8517H247.151C247.747 31.1322 247.952 32.7463 247.952 33.9546C247.952 39.0675 244.632 44.2525 236.593 44.2525C230.612 44.2525 224.772 42.0973 224.772 32.07L224.71 0.509033H234.671V8.32713L234.653 8.31811Z"/><path fill="#09052B" d="M9.89849 8.23694H0V43.495H9.89849V8.23694Z"/><path fill="#09052B" d="M40.1904 8.23694C36.9324 8.23694 32.0188 8.97637 29.4285 14.0261C27.7016 10.5274 24.1766 8.23694 18.9959 8.23694C16.6726 8.23694 14.8567 8.95833 13.1921 10.1396V17.0019C13.7084 16.7494 14.4917 16.5149 15.5421 16.5149C19.9305 16.5149 21.2569 20.2121 21.2569 24.9282V43.504H31.0841V25.0003C31.0841 20.3563 32.4105 16.5239 36.7277 16.5239C41.0449 16.5239 42.4425 20.2211 42.4425 24.9372V43.5131H52.341V24.7388C52.341 15.9919 49.7506 8.25497 40.1815 8.25497L40.1904 8.23694Z"/><path fill="#09052B" d="M103.284 8.23694H93.3859V43.495H103.284V8.23694Z"/><path fill="#09052B" d="M133.567 8.23694C130.309 8.23694 125.396 8.97637 122.805 14.0261C121.079 10.5274 117.554 8.23694 112.373 8.23694C110.05 8.23694 108.234 8.95833 106.569 10.1396V17.0019C107.085 16.7494 107.869 16.5149 108.919 16.5149C113.307 16.5149 114.634 20.2121 114.634 24.9282V43.504H124.461V25.0003C124.461 20.3563 125.787 16.5239 130.105 16.5239C134.422 16.5239 135.819 20.2211 135.819 24.9372V43.5131H145.718V24.7388C145.718 15.9919 143.128 8.25497 133.558 8.25497L133.567 8.23694Z"/><path fill="#09052B" d="M67.9542 24.2879L61.0466 8.23694H51.1481L62.8981 35.8122L67.9542 24.2879Z"/><path fill="#09052B" d="M79.8378 8.23694L57.7798 58.5H67.705L89.7629 8.23694H79.8378Z"/><path fill="#09052B" d="M263.191 24.2879L256.284 8.23694H246.385L258.144 35.8122L263.191 24.2879Z"/><path fill="#09052B" d="M275.075 8.23694L253.026 58.5H262.951L285 8.23694H275.075Z"/></g><defs><clipPath id="clip0_412_196"><rect width="285" height="58" fill="#fff" transform="translate(0 0.5)"/></clipPath></defs></svg>