<svg width="33" height="33" viewBox="0 0 33 33" fill="none" xmlns="http://www.w3.org/2000/svg">
<path d="M11.3221 12.3999C12.2501 14.3328 13.5152 16.1443 15.1173 17.7464C16.7194 19.3485 18.5309 20.6135 20.4637 21.5415C20.63 21.6214 20.7131 21.6613 20.8183 21.6919C21.1921 21.8009 21.6511 21.7226 21.9677 21.4959C22.0568 21.4322 22.133 21.3559 22.2854 21.2035C22.7516 20.7374 22.9846 20.5043 23.219 20.3519C24.1028 19.7773 25.2423 19.7773 26.1261 20.3519C26.3605 20.5043 26.5936 20.7374 27.0597 21.2035L27.3196 21.4634C28.0281 22.1719 28.3824 22.5262 28.5749 22.9067C28.9577 23.6635 28.9577 24.5572 28.5749 25.3139C28.3824 25.6944 28.0281 26.0487 27.3196 26.7573L27.1094 26.9675C26.4032 27.6737 26.0501 28.0268 25.5701 28.2964C25.0374 28.5956 24.2101 28.8108 23.5991 28.809C23.0485 28.8073 22.6722 28.7005 21.9196 28.4869C17.8751 27.339 14.0586 25.173 10.8747 21.989C7.69068 18.805 5.52471 14.9886 4.37675 10.944C4.16314 10.1914 4.05634 9.81515 4.0547 9.26455C4.05288 8.65359 4.26803 7.82627 4.56726 7.29359C4.83692 6.81355 5.19 6.46047 5.89617 5.7543L6.10635 5.54412C6.81494 4.83553 7.16923 4.48124 7.54974 4.28878C8.30649 3.90602 9.20018 3.90602 9.95692 4.28878C10.3374 4.48124 10.6917 4.83553 11.4003 5.54412L11.6601 5.80395C12.1263 6.27009 12.3594 6.50316 12.5117 6.73753C13.0864 7.62139 13.0864 8.76083 12.5117 9.64468C12.3594 9.87905 12.1263 10.1121 11.6601 10.5783C11.5077 10.7307 11.4315 10.8069 11.3677 10.896C11.141 11.2125 11.0628 11.6716 11.1717 12.0454C11.2024 12.1505 11.2423 12.2337 11.3221 12.3999Z" stroke="#585E8D" stroke-width="2.8" stroke-linecap="round" stroke-linejoin="round"/>
</svg>
