<svg width="74" height="73" viewBox="0 0 74 73" fill="none" xmlns="http://www.w3.org/2000/svg">
<rect x="0.3125" width="73" height="73" rx="10" fill="#585E8D"/>
<path d="M34.1992 26.2C34.1992 22.334 31.0652 19.2 27.1992 19.2C23.3332 19.2 20.1992 22.334 20.1992 26.2C20.1992 30.0659 23.3332 33.2 27.1992 33.2C28.5636 33.2 29.8368 32.8096 30.9133 32.1345C30.3658 35.2622 29.4002 37.7794 28.2475 39.8752C26.4294 43.1811 24.1134 45.506 22.0093 47.6099C21.4625 48.1567 21.4625 49.0432 22.0093 49.59C22.556 50.1366 23.4424 50.1366 23.9892 49.59L24.0225 49.5567C26.1124 47.4668 28.6798 44.8995 30.7009 41.2248C32.7455 37.5072 34.1992 32.7233 34.1992 26.2Z" fill="white"/>
<path d="M50.5147 32.1345C49.4384 32.8096 48.1652 33.2 46.8008 33.2C42.9348 33.2 39.8008 30.0659 39.8008 26.2C39.8008 22.334 42.9348 19.2 46.8008 19.2C50.6667 19.2 53.8008 22.334 53.8008 26.2C53.8008 32.7233 52.347 37.5072 50.3025 41.2248C48.2814 44.8995 45.7138 47.4668 43.6242 49.5567L43.5909 49.59C43.044 50.1366 42.1575 50.1366 41.6107 49.59C41.0641 49.0432 41.0641 48.1567 41.6107 47.6099C43.7149 45.506 46.0308 43.1811 47.8491 39.8752C49.0019 37.7794 49.9673 35.2622 50.5147 32.1345Z" fill="white"/>
</svg>
